# xmcd
#
# Track frame offsets:
#	150
#	13290
#	36566
#	53554
#	70265
#	83734
#	99416
#	114166
#	132982
#	147402
#	170036
#
# Disc length: 2609 seconds
# Revision: 1
# Processed by: cddbd v1.5.2PL0 Copyright (c) Steve Scherf et al.
# Submitted via: dBpowerAMP V12.0
#
DISCID=980a2f0b
DTITLE=Neil Getz - Factory Second
DYEAR=2011
DGENRE=Country
TTITLE0=Bad Case of Passion
TTITLE1=Factory Second
TTITLE2=Come On, Ely
TTITLE3=Heart So Steady
TTITLE4=Not In Love, Just Falling
TTITLE5=Jenny Lee
TTITLE6=Oh, Delilah
TTITLE7=Counting Trains
TTITLE8=Penny Candy
TTITLE9=Flock of Demons
TTITLE10=Nelly Blye
EXTD=
EXTT0=
EXTT1=
EXTT2=
EXTT3=
EXTT4=
EXTT5=
EXTT6=
EXTT7=
EXTT8=
EXTT9=
EXTT10=
PLAYORDER=
